<svg width="1200" height="1200" viewBox="0 0 1200 1200" fill="none" xmlns="http://www.w3.org/2000/svg">
<g clip-path="url(#clip0_3741_22)">
<path d="M583.938 112.954C606.353 112.383 630.294 112.787 652.847 112.788L777.64 112.796L1087.14 112.851C1087.3 123.866 1087.03 136.026 1086.79 147.053C1083.18 312.437 1045.77 505.776 920.79 624.438C845.427 696.327 744.687 735.479 640.56 733.34C579.708 731.653 524.23 713.278 481.668 668.319L477.516 671.624C545.979 773.149 703.736 792.502 813.476 763.399C912.107 737.243 1000.09 674.512 1060.69 592.704C1070.67 579.239 1078.44 565.787 1086.85 551.441C1087.98 570.583 1087.18 596.131 1087.17 615.708V732.292L1087.16 1087.14C1073.44 1087.5 1055.94 1087.06 1042.17 1086.59C819.289 1082.13 513.156 1024.28 439.256 778.376C432.042 754.528 427.374 729.983 425.331 705.145C419.993 643.088 430.544 595.622 460.022 540.855L456.51 537.565C441.94 551.829 429.644 569.315 420.808 587.741C383.527 665.489 379.195 758.401 406.684 839.706C438.025 932.407 503.345 1004.19 585.765 1054.87C606.283 1067.49 623.96 1076.29 645.382 1086.91C622.232 1087.8 595.888 1087.2 572.52 1087.2L441.372 1087.19L112.92 1087.14C112.466 1076.46 112.943 1062.13 113.239 1051.35C113.749 1030.58 114.791 1009.83 116.362 989.114C126.725 856.206 159.923 715.997 246.392 610.985C313.047 529.445 409.658 478.091 514.533 468.452C576.185 462.549 637.056 470.096 689.421 506.109C696.042 510.661 701.902 515.307 707.667 520.91C711.623 524.759 715.859 529.751 719.978 533.151C722.662 533.725 721.56 533.993 723.558 533.075C724.466 528.814 717.816 521.127 715.121 517.595C695.878 492.872 671.638 472.48 643.988 457.748C563.935 414.198 463.719 409.275 376.937 435.146C281.107 463.714 192.153 530.317 134.644 612.028C125.801 624.59 120.324 635.266 113.113 648.573C111.908 630.825 112.752 602.213 112.758 583.626L112.778 462.615L112.835 112.845L119.751 112.79C292.165 114.131 498.887 136.056 638.369 246.405C743.445 329.534 785.837 457.82 761.568 588.649C758.89 603.438 755.374 618.063 751.033 632.454C749.955 635.999 739.818 664.563 739.871 665.043C741.494 666.297 741.675 666.204 743.621 666.672C744.968 665.852 745.999 664.247 746.896 662.905C799.384 584.026 822.628 484.308 804.658 391.005C785.509 291.551 727.677 213.616 647.644 154.321C635.31 145.227 622.624 136.632 609.605 128.557C601.255 123.406 591.933 118.393 583.938 112.954Z" fill="black"/>
<path d="M584.633 497.139C649.952 493.864 730.665 528.252 735.001 602.216C736.442 625.947 728.251 649.261 712.29 666.88C687.721 694.126 650.432 701.152 615.381 702.886C549.278 705.933 468.285 671.398 464.905 596.251C463.894 572.613 472.41 549.558 488.545 532.253C512.819 506.033 550.304 498.577 584.633 497.139Z" fill="#DEDEE3"/>
</g>
<defs>
<clipPath id="clip0_3741_22">
<rect width="1200" height="1200" fill="white"/>
</clipPath>
</defs>
</svg>
