<svg width="240" height="240" viewBox="0 0 240 240" fill="none" xmlns="http://www.w3.org/2000/svg">
<path d="M185.89 66.8866C189.203 63.5733 194.335 63.7681 196.457 67.2763C198.753 71.0443 200.486 75.1156 201.72 79.3817C202.413 81.8069 201.611 84.6433 199.598 86.6571L134.696 151.559C130.777 155.479 125.904 158.185 120.729 159.29L115.336 160.437C110.182 161.563 105.266 164.271 101.368 168.169L51.5392 217.998C49.417 209.812 48.4857 204.29 55.134 197.641L185.89 66.8866ZM199.945 94.8475C202.111 92.6821 205.446 93.9384 205.23 96.7968C203.887 114.294 195.55 132.723 180.695 147.579C169.369 159.988 137.405 178.958 114.559 191.67C109.881 194.268 106.069 188.725 109.903 184.891L199.924 94.87L199.945 94.8475ZM170.081 40.6425C172.138 38.5853 175.17 38.1527 177.249 39.5819C181.58 42.5271 185.63 46.7932 187.709 51.9472C188.489 53.9394 187.817 56.3868 186.107 58.0975L116.202 128.001C112.283 131.92 107.41 134.628 102.235 135.732L96.8429 136.88C91.6891 138.006 86.7731 140.713 82.8752 144.61L39.759 187.726C37.6368 179.541 38.6547 172.07 45.3029 165.422L70.466 140.258L170.081 40.6425ZM140.455 28.2157C144.353 24.3178 149.94 22.8017 154.531 24.5341C157.412 25.6385 160.184 26.9815 162.804 28.5624C166.269 30.6414 166.442 35.7086 163.194 38.9569L99.2668 102.884C95.607 106.543 90.6257 108.493 85.8615 108.146C80.8592 107.778 75.5971 109.836 71.7209 113.712L36.7043 148.728C34.582 140.543 37.3324 131.339 43.9806 124.69L140.455 28.2157ZM130.215 21.9989C133.29 21.9558 134.481 25.6162 132.142 27.955L98.9445 61.1522L71.2258 88.872L64.1877 95.9091L53.4025 106.694C51.1503 108.946 47.8155 106.91 49.0715 104.052L59.5529 80.2313C60.1376 78.7804 60.7875 77.3076 61.5021 75.8134L61.5666 75.662C67.6084 62.8636 77.3323 49.285 86.4709 40.1464C101.132 25.4858 114.298 22.1505 130.215 21.9989Z" fill="url(#paint0_linear_7728_54)"/>
<defs>
<linearGradient id="paint0_linear_7728_54" x1="236.796" y1="22.2322" x2="67.9085" y2="217.509" gradientUnits="userSpaceOnUse">
<stop stop-color="#F5BD00"/>
<stop offset="0.364891" stop-color="#F54B00"/>
<stop offset="1" stop-color="#6E45FF"/>
</linearGradient>
</defs>
</svg>
